<svg id="Layer_1" data-name="Layer 1" xmlns="http://www.w3.org/2000/svg" viewBox="0 0 2104.15 1593.06"><defs><style>.cls-1{fill:#355389;}.cls-2{fill:#466eb6;}.cls-3{fill:#13375b;}.cls-4{fill:#184655;}.cls-5{fill:#50bfa5;}.cls-6{fill:#fae0b2;}.cls-7{fill:#b75742;}.cls-8{fill:#f47458;}.cls-9{fill:#f7cc7f;}.cls-10{fill:#f79c8d;}.cls-11{fill:#f48c7f;}.cls-12{fill:#fff3d9;}.cls-13{fill:#fed333;}.cls-14{fill:#fff;}.cls-15{fill:#96d9c9;}.cls-16{fill:#86b1f2;}.cls-17{fill:#f7a491;}.cls-18{fill:#07345a;}.cls-19{fill:#3c8f7c;}.cls-20{fill:#f8a492;}.cls-21{fill:#efefef;}.cls-22{fill:#9bc1f9;}</style></defs><path class="cls-1" d="M2873.48,1806.45s191.06-94.2,223.92-143.33S3082,1611.2,3082,1611.2s85.26-82.92,73.26-117.83-56.76-1.56-56.76-1.56,55.42-123.37,29.57-135.64c-48.15-22.85-115.69,108.45-115.69,108.45s14.52-57-18.64-55.18c-50,2.79-47.93,131.82-47.93,131.82s-5.65-49.47-35.79-33.4C2855.91,1536.69,2873.48,1806.45,2873.48,1806.45Z" transform="translate(-1171.29 -229.96)"/><path class="cls-2" d="M2905.3,1488.09c32.71-9.84,40.29,26.38,40.29,26.38s-1.89-102.24,48.11-105c33.16-1.86,18.64,55.18,18.64,55.18s67.54-131.3,115.69-108.45l-254.77,448.19C2871.46,1773.06,2858.25,1502.24,2905.3,1488.09Z" transform="translate(-1171.29 -229.96)"/><path class="cls-1" d="M2878.42,1807.62s156.26,19.41,196.72,2.11,11.47-38.65,11.47-38.65,86.87-17.08,93.57-43.73-34.77-24-34.77-24,84.7-54.44,73.56-72.59c-20.74-33.82-116.23,20.64-116.23,20.64s32.24-29.69,10.8-42c-32.32-18.58-83.46,62.75-83.46,62.75s3.17-20-22.16-22.27C2962.48,1645.86,2878.42,1807.62,2878.42,1807.62Z" transform="translate(-1171.29 -229.96)"/><path class="cls-3" d="M3005.7,1644.54c25.33,2.22,24.38,27.58,24.38,27.58s51.14-81.33,83.46-62.75c21.44,12.31-10.8,42-10.8,42s95.49-54.46,116.23-20.64l-341,176C2889.54,1786.5,2963.26,1640.81,3005.7,1644.54Z" transform="translate(-1171.29 -229.96)"/><path class="cls-4" d="M3178.45,1816.46c0-3.62-1.93-6.56-4.31-6.56H1205.8c-2.94,0-5.32,2.94-5.32,6.56s2.38,6.56,5.32,6.56H3174.14c2.38,0,4.31-2.94,4.31-6.56Z" transform="translate(-1171.29 -229.96)"/><path class="cls-1" d="M1623,1806.87s-249-122.8-291.88-186.84,20.13-67.68,20.13-67.68-111.15-108.09-95.51-153.6,74-2,74-2-72.24-160.83-38.55-176.82c62.77-29.79,150.81,141.37,150.81,141.37s-18.92-74.35,24.3-71.93c65.18,3.64,62.48,171.84,62.48,171.84s7.37-64.49,46.65-43.55C1645.88,1455.23,1623,1806.87,1623,1806.87Z" transform="translate(-1171.29 -229.96)"/><path class="cls-2" d="M1588.72,1400c-34.36-20.31-60.58,27.48-60.58,27.48s3.3-134.51-61.88-138.15c-43.22-2.42-24.3,71.93-24.3,71.93s-88-171.16-150.81-141.37l332.1,584.23C1625.6,1763.34,1634.38,1427,1588.72,1400Z" transform="translate(-1171.29 -229.96)"/><path class="cls-1" d="M1616.53,1808.4s-203.69,25.3-256.43,2.75-14.94-50.39-14.94-50.39-113.25-22.26-122-57,45.33-31.32,45.33-31.32-110.41-71-95.89-94.63c27-44.08,151.51,26.9,151.51,26.9S1282.1,1566,1310,1550c42.14-24.21,108.8,81.8,108.8,81.8s-4.14-26.13,28.88-29C1507,1597.54,1616.53,1808.4,1616.53,1808.4Z" transform="translate(-1171.29 -229.96)"/><path class="cls-3" d="M1447.57,1585.1c-33,2.9-28.73,46.66-28.73,46.66s-59-113.07-109-83.4c-27.71,16.45,10.72,54.85,10.72,54.85s-120.93-69.48-148-25.4l444.54,229.46C1602,1780.87,1502.9,1580.25,1447.57,1585.1Z" transform="translate(-1171.29 -229.96)"/><path class="cls-5" d="M2725.48,1616.57H1648.24c-41.14,0-74.5-29-74.5-64.87v-38.58c0-35.83,33.36-64.87,74.5-64.87H2725.48c-49.28,46.9-50.13,118.58-2,166.36Z" transform="translate(-1171.29 -229.96)"/><path class="cls-6" d="M2710.39,1467.54H2168.3c-37.33,0-67.59,29-67.59,64.87h0c0,35.83,30.26,64.87,67.59,64.87h542.13A120.43,120.43,0,0,1,2710.39,1467.54Z" transform="translate(-1171.29 -229.96)"/><path class="cls-7" d="M2961.52,1607.7h-1357c-42.15,0-76.31,32.15-76.31,71.81v60.39c0,39.66,34.16,71.81,76.31,71.81H2961.52l-.71-.7C2902.76,1754.15,2903.07,1664.21,2961.52,1607.7Z" transform="translate(-1171.29 -229.96)"/><path class="cls-6" d="M2937.5,1637.9H2212c-42.14,0-76.3,32.15-76.3,71.81h0c0,39.65,34.16,71.8,76.3,71.8h725.45A139,139,0,0,1,2937.5,1637.9Z" transform="translate(-1171.29 -229.96)"/><path class="cls-3" d="M2385.29,1522.6h-55.36a21.55,21.55,0,0,0-21.56,21.55v1.93h76.92Z" transform="translate(-1171.29 -229.96)"/><path class="cls-1" d="M2332.19,1522.67c13.23,0,33,11.2,44.14,25l131.31,162.85,77.13,0-124.88-154.89c-14.7-18.22-40.76-33-58.2-33Z" transform="translate(-1171.29 -229.96)"/><path class="cls-8" d="M1594.54,595.52a3.13,3.13,0,0,1-5.56.82l-13-18.75-22.8,0a3.14,3.14,0,0,1-2.5-5l13.83-18.13-7.09-21.66a3.12,3.12,0,0,1,4-3.93l21.51,7.55L1601.39,523a3.14,3.14,0,0,1,5,2.61l-.53,22.79,18.47,13.36a3.13,3.13,0,0,1-.93,5.54l-21.84,6.53Z" transform="translate(-1171.29 -229.96)"/><path class="cls-9" d="M2412.47,323.26c1.53-3.92,1-18,20.53-31.48,8-5.49,14.6-10.17,16.38-16.59,3.08-11.06-8.57-16.37-20.17-16.32a11.1,11.1,0,0,1-11.1-10.78h0a11.17,11.17,0,0,1,10.63-11.5,72.35,72.35,0,0,1,22.71,2.61c24.9,6.91,32.4,23.82,28.05,39.48-4,14.34-15.46,21.31-24.83,27.24-15.77,10-15.76,21.18-17.11,24.31Zm-12.13,24.67c2.78-10,11.75-15.22,21.56-12.5,10.18,2.83,14.8,11.83,12.21,21.88-2.72,9.81-11.56,15.28-21.75,12.45C2402.37,367,2397.62,357.75,2400.34,347.93Z" transform="translate(-1171.29 -229.96)"/><path class="cls-10" d="M3041.76,577.59,3051,593a2.35,2.35,0,0,0,4.2-.35l6.58-16.71,17.5-4.06a2.35,2.35,0,0,0,1-4.1l-13.86-11.42,1.55-17.89a2.35,2.35,0,0,0-3.6-2.19l-15.15,9.66-16.54-7a2.35,2.35,0,0,0-3.19,2.75l4.5,17.39-11.77,13.57a2.35,2.35,0,0,0,1.63,3.88Z" transform="translate(-1171.29 -229.96)"/><polygon class="cls-11" points="1448.89 118.52 1428.63 104.13 1434.25 79.32 1440.84 80.82 1436.22 101.23 1457.16 116.11 1446.38 142.74 1470.02 155.5 1459.26 179.02 1451.18 180.44 1461.24 158.44 1437.84 145.81 1448.89 118.52"/><polygon class="cls-9" points="515.5 222 528.04 233.04 543.65 226.2 556.84 239.58 571.22 227.16 586.8 241.63 601.45 231.84 618.71 243.31 614.37 249.84 601.46 241.26 586 251.6 571.03 237.69 556.41 250.32 541.86 235.55 526.61 242.24 514.98 232 505.89 238.48 501.34 232.09 515.5 222"/><path class="cls-12" d="M3103,686.24a43.46,43.46,0,1,1-61.44,1.28A43.46,43.46,0,0,1,3103,686.24Z" transform="translate(-1171.29 -229.96)"/><path class="cls-13" d="M3102.09,722.57l-18.49,5.69-5.8,18.45a1.88,1.88,0,0,1-3.34.52l-11.12-15.83-19.34.19a1.89,1.89,0,0,1-1.53-3l11.62-15.47-6.15-18.34a1.88,1.88,0,0,1,2.39-2.38l18.3,6.27,15.54-11.52a1.88,1.88,0,0,1,3,1.54l-.3,19.35,15.75,11.22A1.88,1.88,0,0,1,3102.09,722.57Z" transform="translate(-1171.29 -229.96)"/><path class="cls-9" d="M1825.18,319.08c-24.35,13.8-19.55,50.66,7.6,58a21.07,21.07,0,0,1,11.9,8.62l9.75,14.38a9.18,9.18,0,0,0,12.13,2.85l9.23-5.23a9.2,9.2,0,0,0,3.8-11.87c-7.37-15.84-11.24-21.15-8.61-30.39C1878.69,328.37,1849.55,305.28,1825.18,319.08Z" transform="translate(-1171.29 -229.96)"/><path class="cls-14" d="M1853.26,387.29c-6.83-13.38-14.64-27.29-17-31.18-14.56,6.28-14.67-11.46-5.48-7.61,2.63,1.09,4.46,3.21,6.06,5.69a40.91,40.91,0,0,0,12.64-9.33c-1.51-3.37-2.81-5.86-2.66-8.42.23-3.88,4.13-6.34,7-3.72a5.48,5.48,0,0,1,1.79,4c0,3.13-2.31,6.05-4.4,8.44,4.88,10.85,10.08,21.66,15.51,32.21l-1.34.69c-5.34-10.38-10.47-21-15.27-31.68a42.52,42.52,0,0,1-12.51,9.13c3,5,10.53,18.57,16.94,31.13ZM1828,355.4c1.85.94,4.29.75,7.47-.59a12.25,12.25,0,0,0-5.25-4.92C1825.27,347.81,1824.91,353.82,1828,355.4Zm20.35-18.87c-.13,2.15,1.05,4.42,2.24,7.08,1.68-2,3.59-4.4,3.58-6.91,0-1.76-1.45-3.72-3.18-3.55C1850.8,333.17,1848.44,335,1848.35,336.53Z" transform="translate(-1171.29 -229.96)"/><path class="cls-15" d="M1844.42,385.31c.09.12.18.23.26.35l9.75,14.38a9.18,9.18,0,0,0,12.13,2.85l9.23-5.23a9.2,9.2,0,0,0,3.8-11.87c-3.28-7-5.86-12-7.49-16.16Z" transform="translate(-1171.29 -229.96)"/><path class="cls-6" d="M1801.62,314.33l-13-11.31a3,3,0,0,1,4-4.54l12.95,11.31a3,3,0,1,1-4,4.54Z" transform="translate(-1171.29 -229.96)"/><path class="cls-6" d="M1797.26,354.79l-17.45,4.74a3,3,0,0,1-1.57-5.82l17.44-4.73a3,3,0,1,1,1.58,5.81Z" transform="translate(-1171.29 -229.96)"/><path class="cls-6" d="M1799.55,412.77a3,3,0,0,1-1.45-4,98.73,98.73,0,0,1,9.51-16.07,3,3,0,0,1,4.87,3.55,92.62,92.62,0,0,0-8.93,15.08A3,3,0,0,1,1799.55,412.77Z" transform="translate(-1171.29 -229.96)"/><path class="cls-6" d="M1843.09,298.21a3,3,0,0,1-3.27-2.72,114.26,114.26,0,0,0-4.59-23.24,3,3,0,0,1,5.76-1.78,120.75,120.75,0,0,1,4.83,24.47A3,3,0,0,1,1843.09,298.21Z" transform="translate(-1171.29 -229.96)"/><path class="cls-6" d="M1868.49,313.54a3,3,0,0,1,.59-4.22l15.63-11.75a3,3,0,0,1,3.62,4.81l-15.62,11.76A3,3,0,0,1,1868.49,313.54Z" transform="translate(-1171.29 -229.96)"/><path class="cls-6" d="M1914.53,349.68a3,3,0,0,1-.8.18,94.67,94.67,0,0,1-20.19-.59,3,3,0,0,1,.82-6,88.49,88.49,0,0,0,18.9.55,3,3,0,0,1,1.27,5.83Z" transform="translate(-1171.29 -229.96)"/><path class="cls-2" d="M2832.4,342l-7.72,14.27a327.68,327.68,0,0,1-72.7,90.47l-3.27,2.86s6.31,28.79,35.28,23.74h0A491.82,491.82,0,0,1,2863,380.14l11.33-9.23Z" transform="translate(-1171.29 -229.96)"/><path class="cls-16" d="M2874.4,370.87c-1.72,2.07-12.47-2.73-24-10.71S2830.75,344,2832.46,342s12.58,2.74,24.13,10.73S2876.11,368.81,2874.4,370.87Z" transform="translate(-1171.29 -229.96)"/><path class="cls-1" d="M2874.33,370.94l0,0s-26.61-14.88-31.45-23l-3.17,4a114.91,114.91,0,0,0,10.64,8.24C2861.8,368.05,2872.43,372.83,2874.33,370.94Z" transform="translate(-1171.29 -229.96)"/><path class="cls-7" d="M2826.16,417.85c-3.39,1.14-18.47,4.7-31.8-15.58q-2.57,3.25-5.24,6.46c9.13,12.61,19.13,16.38,26.09,17.28,1.11.14,2.57.27,3.68.31Q2822.48,422,2826.16,417.85Z" transform="translate(-1171.29 -229.96)"/><polygon class="cls-7" points="1628.06 172.9 1618.76 139.72 1614.03 149.82 1603.29 148.17 1621.99 176.38 1628.06 172.9"/><polygon class="cls-7" points="1620.66 178.59 1594.62 174.14 1600.69 181.23 1594.64 186.66 1619.83 184.57 1620.66 178.59"/><path class="cls-8" d="M2787.35,415c-2.31-5.61,1-12.21,7.36-14.73s13.42,0,15.72,5.59-1,12.21-7.36,14.73S2789.65,420.56,2787.35,415Z" transform="translate(-1171.29 -229.96)"/><path class="cls-8" d="M2803.55,799.34c-24.28-13.1-53.57-7.81-70.18,13.79a56.72,56.72,0,0,0-44.26,4.9c-25.81,15-41.61,56.74-20.63,79.4,5.13,23.33,9.1,47.4,32.32,47.66,13.74,25.18,61.83,26.84,86.49,3.18,21.56,6.78,44.58-5.58,59.53-22.72,3.52-4,6.5-10.41,7.84-11.26,0,0,55.57-10.3,50.45-64.12C2899.75,793.84,2841.15,755.06,2803.55,799.34Z" transform="translate(-1171.29 -229.96)"/><path class="cls-17" d="M2592.23,1473.31a315.62,315.62,0,0,0,6.61,48.87c.33,1.24,4.32,6.18,4.69,7.46-6,28.71-25.79,43.61-43.91,53.7,5.39-14.16,15.47-29.9,14.84-33.29a435.31,435.31,0,0,0-14.61-61.49C2573.89,1488.76,2579.89,1480.63,2592.23,1473.31Z" transform="translate(-1171.29 -229.96)"/><path class="cls-7" d="M2659.54,1123.13,2746,1193s-43.47,43-59.77,59-98.36,73.55-99.8,77.23c-.29.74,4.05,9.5,5.4,20.41,3.64,29.51,8.34,112.5,9.63,161.72-9.29,9.75-25.45,16.46-37.47,19.54-29.68-60.44-45.05-206.47-44.94-220.42C2519.26,1287.67,2659.54,1123.13,2659.54,1123.13Z" transform="translate(-1171.29 -229.96)"/><path class="cls-17" d="M2911.7,1274.94c-3.39,2.17-29.94,35.36-41.3,53.8-8.8-9.18-13.27-18.69-23.76-25.94,12-11.55,36.79-40.34,39.93-47.83,7.47-17.79,12.1-19.58,12.1-19.58s55.09,35.14,57.79,42S2925.31,1266.2,2911.7,1274.94Z" transform="translate(-1171.29 -229.96)"/><path class="cls-4" d="M2885,1258.93c-4.63-1.08,5.13-21.76,7.28-26.54,2.42-5.39,5.93-6.34,6.75-6.36,2.23,0,63.46,39,72.84,50.06a14.64,14.64,0,0,1,1.73,3.33c3.55,13.4-51.6,2.81-58.34-4.27C2909.25,1268.85,2905.81,1263.77,2885,1258.93Z" transform="translate(-1171.29 -229.96)"/><path class="cls-7" d="M2640.77,1143.38l76.26-31.45c-.31.13.43,3.23.49,3.47,6.89,29.06,22.5,15.67,37.77,66.16,10.79,35.67,6.88,163.85,6.88,163.85s66-40.73,103.34-68.45c3.4-2.53,24.22,30.7,24.22,30.7-50.72,85.25-155.05,125.85-165,121.93-34-13.38-63.09-244.2-63-244.18C2655.14,1171.74,2640.77,1143.38,2640.77,1143.38Z" transform="translate(-1171.29 -229.96)"/><path class="cls-17" d="M2764.12,951s93.49-18.84,114.29-21.76,93.38-26.29,96.17-27.29,14.07-38.91,18.05-36-6.75,19.06-1.73,21.47,48.81-15.57,49-11.92c.37,6.84-26.39,12.08-25.64,15.25s27.4-8.14,30.49-3.29-26.23,8.26-26.83,10.87,28,.6,26.35,6.16c-.93,3-25.54,1.15-24.6,4.76s19.6,8,18.21,11.4-15.19-5.87-25-3.79-17.95-1.63-32.46,6.37-62.34,42.42-95.85,48.35-107.51,19.27-107.51,19.27Z" transform="translate(-1171.29 -229.96)"/><path class="cls-17" d="M2592.72,776.3c-5.8-19.67-10.49-36.77-10.82-38.13-.69-2.88,24.81-33.11,20.22-34.86s-12.23,16.1-17,13.23-13.75-49.36-16.91-47.53c-5.93,3.44,4.37,28.69,1.3,29.8s-8.22-27.37-14-27.3,7.48,26.46,5.63,28.4-15.89-23.13-19.6-18.65c-2,2.43,13,22,9.51,23.17s-17.47-12-19.52-9,13.24,9.49,16.86,18.79,11.2,14.1,12.47,30.63c.51,6.64.4,20.13,1,35.91C2572.31,780.11,2582.67,779,2592.72,776.3Z" transform="translate(-1171.29 -229.96)"/><path class="cls-4" d="M2599,1522.92c2.29-4.34,18.09,12.55,21.88,16.06,4.26,3.94,4.14,7.72,3.92,8.56-.57,2.19-52.32,53.82-66.37,60a7.25,7.25,0,0,1-4.66-.14c-6.91-3.89,10.67-49.42,21.35-57.46C2582,1544.79,2588.63,1542.44,2599,1522.92Z" transform="translate(-1171.29 -229.96)"/><path class="cls-1" d="M2547.63,766.89c2.9,23.74,5.79,47.48,9,71.17,3.78,27.79,16.82,53.25,30.2,77.51,3.62,6.56,35.07,51.48,31.75,57.58,0,0-9.93,18.24-7.38,31.76,16.56,88-15.75,157.88-63.45,229.11-13.31,19.88-25.88,40.69-34,63.31-8,22.39-7.71,44.27-9.59,67.43-2.66,32.88-5,65.78-7.54,98.66,0,0,72.89,27.39,109.26-.48s91.7,6.44,121.65,11.74,103.28-34.34,117.53-72.4c14.07-37.57,3.5-119.93,3.23-122,.49,3.77-63,23.77-69.63,11.55-4.44-8.14,2.61-34.75,2.68-44.6a382,382,0,0,0-3.07-50.81c-4.48-35.05-17.59-66.83-25.5-100.59-5.27-22.54-18.5-53.76-11.77-77,3.71-12.8,104.83-27,152.48-39.41s83.82-41.8,83.82-41.8l-16.82-40.14s-72.29,24.12-109.47,28.23S2732.83,954,2680.91,938.64s-78.66-113.48-78.66-113.48l-15.7-72.62Z" transform="translate(-1171.29 -229.96)"/><path class="cls-17" d="M2711.47,911.24s-5,26-4.15,36.29-4,43.36-24.85,43.3-3.6-42.14-1.56-52.19,2.77-41.22,2.77-41.22Z" transform="translate(-1171.29 -229.96)"/><path class="cls-14" d="M2705.21,966.24a26.47,26.47,0,0,1-14.85,2.29c-7.63-1.26-11.94-6.83-14.37-12.68-4.27,15.59-7.63,34.94,6.48,35C2695.31,990.87,2702.1,978.29,2705.21,966.24Z" transform="translate(-1171.29 -229.96)"/><path class="cls-8" d="M2683.12,913.06c.39-8.53.56-15.64.56-15.64l27.79,13.82s-1,5.32-2.07,12.1C2697.16,925.8,2688.35,921,2683.12,913.06Z" transform="translate(-1171.29 -229.96)"/><path class="cls-17" d="M2722.27,839.43a35.73,35.73,0,0,1,14.52,19.88c3.82,13.54-.94,48.37-28.79,56.56s-39.66-19.53-33.76-41.07S2692.82,826,2722.27,839.43Z" transform="translate(-1171.29 -229.96)"/><path class="cls-17" d="M2670.84,866.4c.49,5.8,3.52,10.26,6.75,10s5.46-5.26,5-11.06-3.52-10.26-6.75-10S2670.34,860.6,2670.84,866.4Z" transform="translate(-1171.29 -229.96)"/><path class="cls-8" d="M2719,837.65s4.71,38.94,16.69,46.06,6.8,24.33,6.8,24.33,11.24-40,1.84-52.93S2719,837.65,2719,837.65Z" transform="translate(-1171.29 -229.96)"/><path class="cls-17" d="M2728.55,889.23c-3.31,5-3.35,11-.09,13.35s8.58.14,11.89-4.9,3.34-11,.08-13.35S2731.85,884.19,2728.55,889.23Z" transform="translate(-1171.29 -229.96)"/><path class="cls-10" d="M1783.82,783.53s-19.29-26.28-15.83-33.72-1-20.33-1-20.33l-14.34-8.93-28.25,27.12v.62s17.33,24.67,20.14,25.29l4.51,1,18.44,25.11Z" transform="translate(-1171.29 -229.96)"/><path class="cls-1" d="M1961.5,599l-63.28,64.75c-2.43,2.49-2.2,5.29.51,6.25l76.7,27.24c2.72,1,6.89-.27,9.32-2.76L2048,629.68c2.43-2.48,2.2-5.28-.51-6.25l-76.7-27.23C1968.1,595.23,1963.93,596.47,1961.5,599Z" transform="translate(-1171.29 -229.96)"/><path class="cls-1" d="M2099.79,715.58l-47.78-83a6.47,6.47,0,0,1,2.36-8.84l84.39-48.86a6.46,6.46,0,0,1,8.82,2.37l47.79,83a6.49,6.49,0,0,1-2.37,8.85L2108.61,718A6.44,6.44,0,0,1,2099.79,715.58Z" transform="translate(-1171.29 -229.96)"/><path class="cls-3" d="M2088.76,688.93s-6.1-26-2.37-39.69c3.66-13.44,10.21-21.33,12-22.77a58.06,58.06,0,0,1,27.75-12.67c23.3-3.51,56.4,13.65,56.84,41.73l-10.47,11.19Z" transform="translate(-1171.29 -229.96)"/><path class="cls-7" d="M1950.48,673.44c-9.66,11.87-81.79,19.25-103.15,28.84-51.45,23.1-22.76,111.54,10.67,117,11.31,1.83,40.57-6.63,46.26-3.43,17.18,9.67,39.37,12.76,61.91-3.06s11.35-28.71,18.64-41.87,23.69,2.92,32.53-25.47c9.56-30.72,9.8-63.33,1.1-81-14.38-29.26-38.81-32-52-26.29C1962.52,639.82,1952.59,670.85,1950.48,673.44Z" transform="translate(-1171.29 -229.96)"/><polygon class="cls-3" points="927.28 519.48 889.6 520.31 832.75 516.23 791.95 513.4 779.63 546.34 902.3 603.47 927.28 519.48"/><path class="cls-8" d="M2179.71,786s6.21-9.66,1.91-15.38a7.89,7.89,0,0,1,3.41,6.72C2184.82,781.82,2179.71,786,2179.71,786Z" transform="translate(-1171.29 -229.96)"/><path class="cls-1" d="M1977,809.72l108,42.46,53.1,18.22-11.42-61.75c-80.56-4.44-113.78-52-131.67-54.61C1972.84,750.76,1977,809.72,1977,809.72Z" transform="translate(-1171.29 -229.96)"/><path class="cls-17" d="M1754.41,1302.36A268.59,268.59,0,0,1,1722.2,1336c-1,.76-7,2.08-8,2.84-10.7,25.95-2.29,49.86,7.33,69,3.23-14.33,6.43-34.05,8.82-36.28,3.79-3.54,17.11-19,42.74-37.2C1761.28,1325.79,1760.71,1315.74,1754.41,1302.36Z" transform="translate(-1171.29 -229.96)"/><path class="cls-8" d="M1721.43,1336.43c-9.31-.41-27.36,3.7-27.43,5.62-.1,2.29,2.44,82.44,13.86,90.69,6.87,5,9.36-7.21,13.69-24.86C1711.93,1388.74,1715.49,1338.28,1721.43,1336.43Z" transform="translate(-1171.29 -229.96)"/><path class="cls-17" d="M1930.11,1354.61c-1.45,19.14-5.16,61.76-6,65.79-.26,1.17.88,5.86,1.48,6.91,23.25,12.57,46.86,6.26,66.11-1.63-13.17-4.32-30.62-9.89-33.24-11.56s-5.86-6.92-5.09-14.49c1.58-15.65,6.8-31.84,3.27-49.18C1947,1361.35,1943.51,1349.51,1930.11,1354.61Z" transform="translate(-1171.29 -229.96)"/><path class="cls-8" d="M1924.12,1420c-1.51,9.1-1.8,29.37,0,29.6,2.16.27,79.1-.4,89.39-8.53,6.55-5.18-5.69-9.75-21.85-15.42C1972.41,1433.57,1925.16,1426,1924.12,1420Z" transform="translate(-1171.29 -229.96)"/><path class="cls-3" d="M1980,743.71s-40.78-22.14-83.78-3.53c-2.7,1.16-10.88,12-10.87,16.23,0,5.16,8.39,18.86,8.39,18.86l76.09-3.67Z" transform="translate(-1171.29 -229.96)"/><path class="cls-3" d="M2352.05,563.52l4.58.12a4.3,4.3,0,0,0,4.4-4.18l2.37-95.5a4.29,4.29,0,0,0-4.17-4.39l-4.59-.11a4.29,4.29,0,0,0-4.39,4.18l-2.38,95.49A4.28,4.28,0,0,0,2352.05,563.52Z" transform="translate(-1171.29 -229.96)"/><path class="cls-17" d="M2376.41,583.65c-.19-8.63,8.12-56.67,7.67-60s-12-27.1-13-29.36-5.33-4.72-7.29-1.3c-1.07,1.88,1.65,8.5,4.32,14.12-2.72-4.62-9.69-13.24-12.64-12.84-5.7.77.66,16.06,5,22.17s-4.54,31.25-4.54,31.25-5.53,4.45-7.27.29,2.69-16-2.65-12.76-10.07,18.5-7.42,22.36c2.52,3.69,12.61,28,13.54,30.21h0l-7.76,23.83a299.22,299.22,0,0,0,29.51,12.09C2375.9,602.34,2376.41,583.65,2376.41,583.65Z" transform="translate(-1171.29 -229.96)"/><path class="cls-17" d="M2041.12,1338.19s-18.15,22.57-22.67,25.34,2,35.56,14.33,37.72c7,1.21,10.8-6.45,10.8-6.45l-2-9.45,25.93-26.79Z" transform="translate(-1171.29 -229.96)"/><path class="cls-17" d="M2126.92,1339s-15.13,24.71-19.26,28,6.53,35,19,35.56c7,.32,9.89-7.78,9.89-7.78l-3.18-9.11,22.31-29.89Z" transform="translate(-1171.29 -229.96)"/><path class="cls-18" d="M2108.57,1366s8.69,11.11,13.43,15.53a159.74,159.74,0,0,0,14,11.29s8.87,16.15,11.3,21.79c5.4,12.55,11.47,26.54,10.59,33.56-.28,2.26-5.33,4.65-9.54,3.35-17.53-5.41-62.36-46.53-68-57.56C2073.76,1381.26,2108.57,1366,2108.57,1366Z" transform="translate(-1171.29 -229.96)"/><path class="cls-7" d="M2236.52,989.75c-1.63-4.57-3.19-8.8-4.7-12.77-18.64,4.08-39.7,8.57-61.37,13.2l-2.64,79.63c0-6.15,16.29,127,16.29,127s-38.3,92.52-67.1,147c11.82,14.78,14.94,16.89,32.06,27,44.7-53.74,101.81-148.44,104.24-164.79C2254.7,1196.59,2256,1044.58,2236.52,989.75Z" transform="translate(-1171.29 -229.96)"/><path class="cls-8" d="M2073.55,1027.16c5.7,62,18.37,180.67,17.31,190.22-3.18,11.89-57.23,121.66-67.37,137.64,8,12.16,19.92,23.61,33.32,27.24,2.65.72,93.94-130.28,99-140.81,5.73-11.9,15.28-76.85,15.45-157.26l2.64-79.63C2137.81,1012.28,2104.62,1019.84,2073.55,1027.16Z" transform="translate(-1171.29 -229.96)"/><path class="cls-3" d="M2222.67,812s98.23-49.26,107.41-60.28c6.25-7.49,53.78-147.07,53.78-147.07.8-9.22-37.83-12.63-39-10.81-4.52,7-53.64,118.12-53.64,118.12l-111.89,32.17-26.17,7.72Z" transform="translate(-1171.29 -229.96)"/><path class="cls-18" d="M2019.48,1362.69s7.2,12.13,11.34,17.12a159.9,159.9,0,0,0,12.4,13s6.75,17.16,8.44,23.06c3.75,13.14,8,29,6.24,35.86-.57,2.2-5.4,6.4-9.38,3.8-15.37-10-56.45-57-60.65-68.73C1983,1373.33,2019.48,1362.69,2019.48,1362.69Z" transform="translate(-1171.29 -229.96)"/><path class="cls-19" d="M1963,961.64l26.55.26s-7.07,48.59-7,64.57,22.07,149.15,20.54,166.44-45.13,198.84-45.13,198.84l-35.9-1s5.89-116.65,12.27-139.69,11.49-44,11.49-44l-39.24-138.29Z" transform="translate(-1171.29 -229.96)"/><path class="cls-5" d="M1989.25,957.15s-44.77,243.07-56.7,251.82-171.8,136.6-171.8,136.6l-19.66-30.36s68-132.23,128-136.94c0,0-3.76-159,7.29-184.65s47.36-58.78,47.36-58.78l65.57,11.82Z" transform="translate(-1171.29 -229.96)"/><polygon class="cls-6" points="1106.27 267.76 1107.1 285.28 1079.14 289.73 1077.2 315.5 1056.81 322.26 1060.23 332.61 1087.49 323.56 1089.33 299.15 1118.42 294.52 1117.17 268.15 1106.27 267.76"/><polygon class="cls-6" points="1126.29 230.62 1108.89 232.39 1102.95 204.63 1077.19 204.07 1069.36 184.02 1059.24 188 1069.71 214.81 1094.12 215.34 1100.3 244.22 1126.48 241.55 1126.29 230.62"/><path class="cls-3" d="M2076.77,751.54c-12.12,95.53-11.58,180.47-15.86,276.64-2,45.2-1.3,113.14-12.4,156.82-6.28,24.76-30.92,47.51-48.08,65.8,0,0,22.47,10.52,23.88,11a178.4,178.4,0,0,0,68,9.75c30.5-1.43,60.06-8.45,90.86-10.08,34.15-1.8,63.07,17.43,96.29,9.55,10.4-2.46,34.95-91.49,20-177.37-23.2-133.11-82.48-298.8-82.48-298.8l-20.2-56Z" transform="translate(-1171.29 -229.96)"/><path class="cls-9" d="M2139.4,624.83S2123,611,2113.29,631.21c0,0-9.68-4.08-15,5.77,0,0-17-3.09-18.19,22,0,0-8.64-.63-8.62,9.58a25.15,25.15,0,0,0,5.9,16.34s-4.35,4.12-1.14,13.14c2.73,7.67,9.37,8.13,9.37,8.13s3.27,13.08,9.46,16.43,13.81.53,13.81.53,2.89,7,9.52,5.56,14.2-8.75,22-6.73,26.95-3.23,26.95-3.23,20.76-12.26,11.67-33.92c0,0,10.31-11.71-1.16-23,0,0,5.13-20.37-10.7-30.23S2139.4,624.83,2139.4,624.83Z" transform="translate(-1171.29 -229.96)"/><path class="cls-17" d="M2148.88,730.5l4.9,19.47s7.51,32.83-5.29,33.45c-9.48.46-33.15-35.86-33.15-35.86l1-44.9Z" transform="translate(-1171.29 -229.96)"/><path class="cls-8" d="M2117.34,719c8.27,16.36,24.53,25.15,35.69,28l-4.15-16.5-32.53-27.84Z" transform="translate(-1171.29 -229.96)"/><path class="cls-9" d="M2071.72,673.26c.87,7.63,5.9,13.33,11.24,12.72s9-7.29,8.1-14.92-5.9-13.32-11.24-12.72S2070.86,665.63,2071.72,673.26Z" transform="translate(-1171.29 -229.96)"/><path class="cls-9" d="M2097.35,640.26c.5,4.38,6.17,7.34,12.66,6.6s11.36-4.9,10.86-9.29-6.16-7.34-12.66-6.59S2096.85,635.87,2097.35,640.26Z" transform="translate(-1171.29 -229.96)"/><path class="cls-17" d="M2128.08,648A26.49,26.49,0,0,1,2165,665.13a199.77,199.77,0,0,1,5,25.12c3,23-6.33,46.88-16.79,48.08s-41.06-10.46-45.82-43.13C2104.42,675,2112.41,655.5,2128.08,648Z" transform="translate(-1171.29 -229.96)"/><path class="cls-17" d="M2115.36,696.92c.58,5.09-2.32,9.6-6.48,10.08s-8-3.27-8.57-8.37,2.32-9.61,6.48-10.08S2114.78,691.82,2115.36,696.92Z" transform="translate(-1171.29 -229.96)"/><path class="cls-9" d="M2172.08,631.35c11.78,7.35,17,19.95,11.76,28.16s-19.11,8.89-30.88,1.54-17-19.95-11.76-28.16S2160.31,624,2172.08,631.35Z" transform="translate(-1171.29 -229.96)"/><path class="cls-9" d="M2144.64,641.61c.42,3.73-3.73,7.26-9.26,7.89s-10.38-1.87-10.8-5.6,3.72-7.27,9.26-7.9S2144.22,637.88,2144.64,641.61Z" transform="translate(-1171.29 -229.96)"/><path class="cls-9" d="M2177.74,666.9a8.62,8.62,0,1,1-9.55-7.71A8.69,8.69,0,0,1,2177.74,666.9Z" transform="translate(-1171.29 -229.96)"/><path class="cls-14" d="M2125,761.24c7.67,10.25,18,22.45,23.52,22.18,8.18-.4,8.06-13.94,6.92-23.67C2149.25,769,2134.4,765,2125,761.24Z" transform="translate(-1171.29 -229.96)"/><path class="cls-9" d="M2108,589.75a40.28,40.28,0,0,1-11.16-1.58c-7.79-2.23-13.32-6.27-16.41-12-4.82-8.89-2-18.53-1.83-18.94a1.52,1.52,0,1,1,2.91.9c0,.08-2.6,8.86,1.61,16.61,2.69,5,7.59,8.49,14.56,10.49,22.85,6.56,41.55-11.59,41.73-11.78a1.53,1.53,0,1,1,2.14,2.18C2140.86,576.32,2127,589.75,2108,589.75Z" transform="translate(-1171.29 -229.96)"/><path class="cls-9" d="M2087.33,538.92l-3.6,10.15a6.15,6.15,0,0,0-5.61,2.14c-2.21,2.52-2.18,6.15.05,8.11s5.82,1.51,8-1a6.28,6.28,0,0,0,1.47-5.6l9.7-5,16.09-8.23-20.06-17.66Z" transform="translate(-1171.29 -229.96)"/><path class="cls-9" d="M1956.61,631.21a40.24,40.24,0,0,1-8.41,7.52c-6.74,4.53-13.38,6.15-19.73,4.82-9.88-2-15.37-10.47-15.6-10.83a1.52,1.52,0,1,1,2.56-1.65c0,.07,5.07,7.72,13.69,9.5,5.51,1.14,11.36-.33,17.39-4.37,19.75-13.26,18-39.3,18-39.56a1.52,1.52,0,1,1,3-.23C1967.61,597.37,1968.89,616.65,1956.61,631.21Z" transform="translate(-1171.29 -229.96)"/><path class="cls-9" d="M1904.57,614.2l5.4,9.3a6.2,6.2,0,0,0-2,5.69c.49,3.31,3.27,5.63,6.2,5.19s4.92-3.47,4.42-6.78a6.22,6.22,0,0,0-3.31-4.74l2.49-10.64,4.12-17.63-26.4,3.95Z" transform="translate(-1171.29 -229.96)"/><path class="cls-2" d="M1778.38,765.18,1746.73,791s67.85,97.54,79.53,96.48,81.38-61.32,81.44-61.37c-2.56,2.21-2.12,19.3-2.6,22.63-9,63.27-14.33,64.27-46.37,138.36-26.73,61.82-3.15,117.61-45.57,176-21.09,29.05-55,48-84.58,67.18,0,0,36.1,55.36,89.19,55.36s80.69-4.26,113.6,10.65,85.38,4.73,102.37-4.85c13.4-7.56,23.64-22,36.59-30.29-18.1-56.16-28.13-109.31-41.28-166.83-12.26-53.63-32.84-112.62-15.61-166.76,16.35-51.4,36.27-119.56-3.14-167.54,0,0-19.43-10.63-63.23-17.81S1831.61,822,1831.61,822Z" transform="translate(-1171.29 -229.96)"/><path class="cls-20" d="M1902.1,783.18c.94-.86-1.74-5-2.18-7.21,3.29,7.07,6.44,15.33,8.49,13.58.88-.76-1.33-11.26-1.41-13.13,1.49,3.38,3.52,12.55,6.83,10.94,2-1-.08-11.66-1.44-17.77,1.12,3.69,4.22,15.45,5.36,14.49,2.47-2.09-3-28.33,0-32.39,1.2-1.59-2.49-4.7-7.37-6.23a16.18,16.18,0,0,0-9.27-.35c-4.37.52-7.94,2.87-10.55,4.42a11.48,11.48,0,0,0-3.75,3.68,14.34,14.34,0,0,0-.46,14.4C1889.86,774.25,1899.46,785.59,1902.1,783.18Z" transform="translate(-1171.29 -229.96)"/><path class="cls-20" d="M1924.87,756.28a31.65,31.65,0,0,0-2.72-7c-1.53-2.4-17.32-8.05-25.55-2.86s18.18,8.45,18.18,8.45a14.93,14.93,0,0,1,5,4.19c1.59,2.46-.27,7.59,2.12,8.58S1926.33,761.81,1924.87,756.28Z" transform="translate(-1171.29 -229.96)"/><path class="cls-20" d="M2181.88,770.94c-.94-.87,1.74-5,2.18-7.21-3.3,7.07-6.44,15.32-8.49,13.57-.88-.75,1.33-11.25,1.4-13.13-1.49,3.38-3.52,12.55-6.83,11-2-1,.09-11.66,1.44-17.78-1.11,3.69-4.21,15.46-5.36,14.5-2.47-2.09,3-28.34,0-32.39-1.2-1.59,2.5-4.71,7.38-6.23a16,16,0,0,1,9.27-.35c4.37.52,7.93,2.86,10.54,4.42a11.62,11.62,0,0,1,3.76,3.68,14.34,14.34,0,0,1,.46,14.39C2194.11,762,2184.51,773.34,2181.88,770.94Z" transform="translate(-1171.29 -229.96)"/><path class="cls-20" d="M2159.11,744a31.13,31.13,0,0,1,2.72-7c1.52-2.4,17.32-8.06,25.54-2.87s-18.18,8.45-18.18,8.45a15,15,0,0,0-5,4.2c-1.59,2.46.27,7.58-2.12,8.58S2157.65,749.56,2159.11,744Z" transform="translate(-1171.29 -229.96)"/><path class="cls-17" d="M1972.33,716.6s-3.22,26.18-7.22,35.56,3.19,45.41,23,52.4,3.69-41.67,4.84-51.82S2003,713,2003,713Z" transform="translate(-1171.29 -229.96)"/><path class="cls-14" d="M1988.13,804.56c15.15,5.35,9.3-21.82,6.21-39.46l-.06.17c-6.63,18.15-20.25,9.35-29.88-.3C1966.08,779.33,1973.81,799.51,1988.13,804.56Z" transform="translate(-1171.29 -229.96)"/><path class="cls-8" d="M1998.75,727.92C2001,719.76,2003,713,2003,713l-30.7,3.58s-.66,5.35-1.75,12.09C1981.46,735.15,1991.33,733.62,1998.75,727.92Z" transform="translate(-1171.29 -229.96)"/><path class="cls-17" d="M2024.8,688.17c-2.26,5.3-6.51,8.47-9.49,7.08s-3.57-6.79-1.32-12.08,6.51-8.46,9.5-7.08S2027.06,682.88,2024.8,688.17Z" transform="translate(-1171.29 -229.96)"/><path class="cls-17" d="M1984.16,645.37a34.25,34.25,0,0,0-19.94,13.78c-7.8,11.45-14,45.84,10,63s43.75-4.94,44.77-27.21S2016.32,642.73,1984.16,645.37Z" transform="translate(-1171.29 -229.96)"/><path class="cls-17" d="M1962.86,690.1c1.59,5.87-.21,11.5-4,12.59s-8.21-2.77-9.8-8.64.21-11.5,4-12.59S1961.27,684.24,1962.86,690.1Z" transform="translate(-1171.29 -229.96)"/><path class="cls-3" d="M1949,674.9s52.44-21.12,69.42-10.49c0,0-5.84-26.61-5.84-26.64-2.63-11.93-29.37-6.46-37.2-5.26-9.55,1.46-27.4,5.78-31.29,15.91C1941.46,655.34,1949,674.9,1949,674.9Z" transform="translate(-1171.29 -229.96)"/><path class="cls-2" d="M1764.53,647.21l-6.82,17.34c-9.5,48.73-26.47,75.67-69.39,112.91l-3.27,3.68s10.32,32.33,41.61,23h0a570.29,570.29,0,0,1,76-116.85l11.39-12Z" transform="translate(-1171.29 -229.96)"/><path class="cls-16" d="M1814.13,675.22c-1.65,2.58-14-1.61-27.69-9.37s-23.5-16.16-21.86-18.74,14.17,1.61,27.82,9.37S1815.77,672.63,1814.13,675.22Z" transform="translate(-1171.29 -229.96)"/><path class="cls-1" d="M1814.07,675.3l0,0s-31-13.84-37.31-22.56l-3,5a129.6,129.6,0,0,0,12.68,8.16C1799.93,673.52,1812.2,677.71,1814.07,675.3Z" transform="translate(-1171.29 -229.96)"/><path class="cls-10" d="M1752.29,726.38s-4,2.73-1.85,6.32,10.26,5.21,10.26,5.21-4.45,6.32-2.23,12.89,9.52-14.25,9.52-14.25l-.24-5.46Z" transform="translate(-1171.29 -229.96)"/><path class="cls-7" d="M1748.2,764.16q3.63-6.13,7.39-12.17c-5.35-10.84-12-23.65-17.3-31.3-2.26,4-4.71,7.85-7.39,11.69C1735.94,741,1743,753.6,1748.2,764.16Z" transform="translate(-1171.29 -229.96)"/><path class="cls-10" d="M1738.6,720s-5.34,0-6.95,1,.48,4-1.62,5.67-6.31,1.14-6,4.22-1.38,5.84-3,8.11,7.19,15.56,11.23,16-3.8-16.54-3-16.22,6.87,11.35,9.3,10.38-3.8-18.32-3.8-18.32,6.06,10.7,8.49,9.24S1738.6,720,1738.6,720Z" transform="translate(-1171.29 -229.96)"/><path class="cls-9" d="M2659.05,687.7a40.81,40.81,0,0,1-9.22-6.59c-5.91-5.62-9-11.76-9-18.27-.14-10.12,6.92-17.32,7.22-17.62a1.53,1.53,0,0,1,2.17,0,1.5,1.5,0,0,1,0,2.15c-.06.07-6.47,6.65-6.33,15.47.09,5.64,2.82,11,8.1,16.07,17.34,16.45,42.51,9.1,42.76,9a1.53,1.53,0,1,1,.89,2.92C2694.68,691.12,2676,696.57,2659.05,687.7Z" transform="translate(-1171.29 -229.96)"/><path class="cls-9" d="M2664.36,633.07l-8,7.31a6.26,6.26,0,0,0-6-.72c-3.14,1.2-4.81,4.42-3.74,7.2s4.49,4,7.63,2.85a6.23,6.23,0,0,0,3.92-4.27l11,.12,18.21.21-9.66-25Z" transform="translate(-1171.29 -229.96)"/><path class="cls-2" d="M2732.05,702.84c4,3.16,10.85,13.33,19.64,20.47,5.14,4.17,9.1,3.11,15.66,3.91,31.14,3.76,22.7,10.12,26.44,10.75-1.06,2.44-10.76,23.06-12.58,27.23-1.67,3.85-4.56,5.57-8.75,5-6.44-.89-12.94-1.55-19.28-2.93-16.25-3.52-25.29-11.65-36.94-21.52a7.62,7.62,0,0,1-2.25-9.59C2721.45,718.92,2731.24,704.42,2732.05,702.84Z" transform="translate(-1171.29 -229.96)"/><path class="cls-1" d="M2838.16,747.6q-26.79-22.35-53.57-44.72a37.46,37.46,0,0,0-20.14-8.66c-5.77-.67-62.64-7.74-68.44-8.46-2.13-.27-4.11-.18-5.61,1.59a5,5,0,0,0,.82,7.42q27.21,22.8,54.45,45.58a34.1,34.1,0,0,0,18.09,7.87l70.52,8.6c3.12.67,5.18-.52,6.13-3C2841.27,751.52,2840.61,749.65,2838.16,747.6Z" transform="translate(-1171.29 -229.96)"/><polygon class="cls-5" points="1723.15 309.23 1735.85 305.09 1744.78 324.78 1764.09 321.01 1773.18 334.66 1780.09 330.06 1767.93 311.8 1749.63 315.38 1740.34 294.89 1721.23 301.13 1723.15 309.23"/><polygon class="cls-9" points="1899.85 1067.29 1912.55 1063.14 1921.47 1082.84 1940.78 1079.07 1949.87 1092.71 1956.78 1088.11 1944.62 1069.86 1926.32 1073.43 1917.04 1052.95 1897.93 1059.18 1899.85 1067.29"/><path class="cls-9" d="M2191,287.05a47.62,47.62,0,1,1-37.23-56.14A47.61,47.61,0,0,1,2191,287.05Z" transform="translate(-1171.29 -229.96)"/><path class="cls-21" d="M2117.9,279.94a25.47,25.47,0,1,0,49.92,10.11Z" transform="translate(-1171.29 -229.96)"/><path class="cls-7" d="M1481.47,826.64c-3.87-5.16-8.15-7.77-12.72-7.77-25.93,0-31.77,76.4-31.77,103.16,0,30.53,3.39,56.78,9.79,75.92,5.9,17.63,13.77,27.34,22.17,27.34,8.91,0,17-11.16,22.93-31.42C1506.88,942.17,1501.33,853.09,1481.47,826.64Zm5.23,166.64c-5,16.75-11.71,26.75-18,26.75s-13-10-18-26.75c-5.58-18.69-8.65-44-8.65-71.25s3.07-52.57,8.65-71.25c5-16.75,11.72-26.75,18-26.75s13,10,18,26.75c5.58,18.68,8.66,44,8.66,71.25S1492.28,974.59,1486.7,993.28Z" transform="translate(-1171.29 -229.96)"/><path class="cls-7" d="M1556.89,950.56c-20.74-34.41-116.6-85.62-160.26-85.62-10.07,0-16.64,2.76-19.51,8.21-2.69,5.09-1.79,11.43,2.68,18.85,20.8,34.51,116.52,85.87,160,85.87,10.16,0,16.79-2.81,19.72-8.35C1562.27,964.38,1561.37,958,1556.89,950.56Zm-1.33,15.67c-1.57,3.87-7,5.92-15.59,5.92h0c-30.23,0-99-25.74-142.37-67.65-16.53-16-18.09-24.06-16.48-28s6.93-5.9,15.54-5.9c16.09,0,41.24,7,67.26,18.61,29.39,13.15,56.07,30.54,75.14,49C1555.61,954.15,1557.16,962.25,1555.56,966.23Z" transform="translate(-1171.29 -229.96)"/><path class="cls-7" d="M1557.78,872c-3-5.54-9.55-8.35-19.46-8.35-19.8,0-53.47,11.83-87.88,30.86s-61.74,40.93-71.42,57.18c-4.42,7.43-5.31,13.7-2.63,18.64,2.93,5.41,9.41,8.15,19.24,8.15,43.21,0,138.63-52.27,159.54-87.39C1559.67,883.55,1560.55,877.13,1557.78,872Zm-48.36,54.44c-30.57,21.33-66.3,37.87-95.57,44.24a88.81,88.81,0,0,1-18.31,2.3h0c-7.74,0-12.79-1.77-14.61-5.12s-1-7.77,2.37-13.38c8.81-14.8,35-36,66.73-54.12,34.09-19.42,67.22-31,88.6-31,9.82,0,15.08,2.58,15.62,7.66C1555.36,887.28,1537.76,906.68,1509.42,926.46Z" transform="translate(-1171.29 -229.96)"/><path class="cls-8" d="M1485.36,918.93a16.51,16.51,0,1,1-16.51-16.51A16.51,16.51,0,0,1,1485.36,918.93Z" transform="translate(-1171.29 -229.96)"/><path class="cls-8" d="M1464,841.54a12.38,12.38,0,1,1-12.38-12.38A12.38,12.38,0,0,1,1464,841.54Z" transform="translate(-1171.29 -229.96)"/><path class="cls-8" d="M1502.21,988.41a10.32,10.32,0,1,1-10.32-10.32A10.32,10.32,0,0,1,1502.21,988.41Z" transform="translate(-1171.29 -229.96)"/><path class="cls-8" d="M1402.12,938.88a10.66,10.66,0,1,1-10.66-10.66A10.66,10.66,0,0,1,1402.12,938.88Z" transform="translate(-1171.29 -229.96)"/><path class="cls-8" d="M1560,891.24a8.77,8.77,0,1,1-8.77-8.77A8.77,8.77,0,0,1,1560,891.24Z" transform="translate(-1171.29 -229.96)"/><path class="cls-8" d="M1430.1,872.86a8.77,8.77,0,1,1-8.77-8.77A8.77,8.77,0,0,1,1430.1,872.86Z" transform="translate(-1171.29 -229.96)"/><rect class="cls-22" x="3203.14" y="1061.62" width="43.52" height="7.49" transform="translate(-1342.7 825.29) rotate(-18.11)"/><rect class="cls-22" x="3139.42" y="990.89" width="45.84" height="7.49" transform="translate(-383.2 3078.26) rotate(-61.72)"/><rect class="cls-22" x="3193.96" y="1141.11" width="7.49" height="47.85" transform="translate(-1161.44 2126.81) rotate(-40.52)"/><polygon class="cls-22" points="2013.38 917.49 1938.08 937.83 1881.23 890.58 1886.02 884.82 1939.88 929.58 2007.3 911.37 2026.55 841.99 1976.81 788.75 1982.29 783.64 2034.9 839.95 2013.38 917.49"/><path class="cls-15" d="M3070.61,1111.45a18.11,18.11,0,1,1-23.12-11A18.12,18.12,0,0,1,3070.61,1111.45Z" transform="translate(-1171.29 -229.96)"/><path class="cls-15" d="M3127.6,1160.18a18.11,18.11,0,1,1-23.12-11A18.12,18.12,0,0,1,3127.6,1160.18Z" transform="translate(-1171.29 -229.96)"/><path class="cls-15" d="M3199,1138.47a18.11,18.11,0,1,1-23.11-11A18.11,18.11,0,0,1,3199,1138.47Z" transform="translate(-1171.29 -229.96)"/><path class="cls-15" d="M3235.52,1181.85a18.11,18.11,0,1,1-23.12-11A18.12,18.12,0,0,1,3235.52,1181.85Z" transform="translate(-1171.29 -229.96)"/><path class="cls-15" d="M3274.4,1050.18a18.11,18.11,0,1,1-23.12-11A18.11,18.11,0,0,1,3274.4,1050.18Z" transform="translate(-1171.29 -229.96)"/><path class="cls-15" d="M3197.32,961.51a18.11,18.11,0,1,1-23.11-11A18.1,18.1,0,0,1,3197.32,961.51Z" transform="translate(-1171.29 -229.96)"/><path class="cls-15" d="M3222.11,1064a18.11,18.11,0,1,1-23.12-11A18.11,18.11,0,0,1,3222.11,1064Z" transform="translate(-1171.29 -229.96)"/><path class="cls-15" d="M3168.55,1008.78a18.11,18.11,0,1,1-23.11-11A18.11,18.11,0,0,1,3168.55,1008.78Z" transform="translate(-1171.29 -229.96)"/><polygon class="cls-8" points="1988.96 656.37 1964.65 651.31 1969.81 631.68 1977.06 633.59 1973.91 645.58 1990.49 649.04 1988.96 656.37"/><polygon class="cls-5" points="345.92 873.42 340.45 888.6 315.06 882.49 304.33 903.69 284.59 902.23 283.85 912.22 310.25 914.18 320.42 894.09 346.83 900.44 355.06 877.61 345.92 873.42"/><polygon class="cls-22" points="322.69 451.79 335.97 453.16 336.12 474.79 355.3 479.19 358.05 495.36 366.24 493.96 362.55 472.34 344.38 468.17 344.22 445.67 324.23 443.6 322.69 451.79"/></svg>